<svg width="18" height="18" viewBox="0 0 18 18" fill="none" xmlns="http://www.w3.org/2000/svg">
<path fill-rule="evenodd" clip-rule="evenodd" d="M9.49999 2C5.35788 2 2 5.35784 2 9.49999C2 13.6421 5.35788 17 9.49999 17C13.6422 17 17 13.6421 17 9.49999C17 5.35784 13.6422 2 9.49999 2ZM9.49999 15.5C6.19161 15.5 3.50001 12.8084 3.50001 9.49999C3.50001 6.19157 6.19157 3.50001 9.49999 3.50001C12.8084 3.50001 15.5 6.19157 15.5 9.49999C15.5 12.8084 12.8084 15.5 9.49999 15.5ZM10.4392 6.5C10.4392 7.0438 10.0432 7.43751 9.50762 7.43751C8.95036 7.43751 8.56413 7.04376 8.56413 6.48959C8.56413 5.95698 8.9608 5.56252 9.50762 5.56252C10.0432 5.56252 10.4392 5.95698 10.4392 6.5ZM8.75165 8.75H10.2516V13.25H8.75165V8.75Z" fill="#FF0000"/>
</svg>
