<svg width="24" height="24" viewBox="0 0 24 24" fill="none" xmlns="http://www.w3.org/2000/svg">
<path fill-rule="evenodd" clip-rule="evenodd" d="M7.99935 19C8.55134 19 9 19.4487 9 20.0007C9 20.5526 8.55134 21 7.99935 21C7.44735 21 7 20.5526 7 20.0007C7 19.4487 7.44735 19 7.99935 19Z" stroke="#FF0000" stroke-width="2" stroke-linecap="round" stroke-linejoin="round"/>
<path fill-rule="evenodd" clip-rule="evenodd" d="M20 19C20.5516 19 21 19.4487 21 20.0007C21 20.5526 20.5516 21 20 21C19.4484 21 19 20.5526 19 20.0007C19 19.4487 19.4484 19 20 19Z" stroke="#FF0000" stroke-width="2" stroke-linecap="round" stroke-linejoin="round"/>
<path d="M3 3L5.13621 3.34703L6.12523 14.4066C6.20534 15.3079 7.00744 16 7.97079 16H19.1777C20.0979 16 20.8784 15.3657 21.0109 14.5097L21.9855 8.18805C22.1057 7.4082 21.4618 6.71029 20.6227 6.71029H5.47923" stroke="#FF0000" stroke-width="2" stroke-linecap="round" stroke-linejoin="round"/>
<path d="M15 11H18" stroke="#FF0000" stroke-width="2" stroke-linecap="round" stroke-linejoin="round"/>
</svg>
