<svg width="16" height="16" viewBox="0 0 16 16" fill="none" xmlns="http://www.w3.org/2000/svg">
<g clip-path="url(#clip0_160_2383)">
<path d="M14.0001 11.3334L12.0001 6.66671L10.0001 11.3334M6.00009 11.3334L4.00009 6.66671L2.00009 11.3334M2.66676 6.66671H3.36543C4.20809 6.66671 5.02543 6.19671 5.68276 5.33338C7.03743 3.55538 8.96276 3.55538 10.3174 5.33338C10.9748 6.19671 11.7921 6.66671 12.6348 6.66671H13.3334M12.0001 14.6667C13.0401 14.6667 13.9454 13.9654 14.4121 12.9314C14.6474 12.4114 14.7648 12.1507 14.5654 11.742C14.3661 11.3334 14.0348 11.3334 13.3734 11.3334H10.6254C9.96409 11.3334 9.63409 11.3334 9.43409 11.742C9.23409 12.1507 9.35209 12.4107 9.58742 12.9314C10.0548 13.9654 10.9601 14.6667 12.0001 14.6667ZM4.00009 14.6667C5.04009 14.6667 5.94543 13.9654 6.41209 12.9314C6.64743 12.4114 6.76476 12.1507 6.56542 11.742C6.36609 11.3334 6.03543 11.3334 5.37343 11.3334H2.62609C1.96476 11.3334 1.63476 11.3334 1.43476 11.742C1.23476 12.1507 1.35276 12.4107 1.58809 12.9314C2.05476 13.9654 2.96009 14.6667 4.00009 14.6667Z" stroke="#FF0000" stroke-linecap="round" stroke-linejoin="round"/>
<path d="M9.33366 2.66671C9.33366 3.02033 9.19318 3.35947 8.94313 3.60952C8.69309 3.85957 8.35395 4.00004 8.00033 4.00004C7.6467 4.00004 7.30757 3.85957 7.05752 3.60952C6.80747 3.35947 6.66699 3.02033 6.66699 2.66671C6.66699 2.31309 6.80747 1.97395 7.05752 1.7239C7.30757 1.47385 7.6467 1.33337 8.00033 1.33337C8.35395 1.33337 8.69309 1.47385 8.94313 1.7239C9.19318 1.97395 9.33366 2.31309 9.33366 2.66671Z" stroke="#FF0000" stroke-linecap="round" stroke-linejoin="round"/>
</g>
<defs>
<clipPath id="clip0_160_2383">
<rect width="16" height="16" fill="white"/>
</clipPath>
</defs>
</svg>
