<svg width="18" height="18" viewBox="0 0 18 18" fill="none" xmlns="http://www.w3.org/2000/svg">
<path fill-rule="evenodd" clip-rule="evenodd" d="M3.54692 5.25814C3.54692 4.31292 4.31352 3.5463 5.25796 3.5463H6.03667C6.48769 3.5463 6.92132 3.3677 7.24219 3.04909L7.7863 2.50421C8.453 1.83446 9.53669 1.83143 10.2064 2.49816L10.2132 2.50421L10.7581 3.04909C11.0782 3.3677 11.5118 3.5463 11.9636 3.5463H12.7416C13.6868 3.5463 14.4534 4.31292 14.4534 5.25814V6.03535C14.4534 6.48791 14.632 6.92079 14.9506 7.24166L15.4954 7.78655C16.1652 8.45327 16.1689 9.53623 15.5022 10.2067L15.4954 10.2135L14.9506 10.7584C14.632 11.0778 14.4534 11.5122 14.4534 11.9632V12.742C14.4534 13.6872 13.6868 14.453 12.7416 14.453H11.9636C11.5118 14.453 11.0782 14.6324 10.7581 14.951L10.2132 15.4951C9.54728 16.1656 8.4636 16.1687 7.79311 15.5019C7.79084 15.4997 7.78857 15.4974 7.7863 15.4951L7.24219 14.951C6.92132 14.6324 6.48769 14.453 6.03667 14.453H5.25796C4.31352 14.453 3.54692 13.6872 3.54692 12.742V11.9632C3.54692 11.5122 3.36757 11.0778 3.04897 10.7584L2.50486 10.2135C1.83437 9.54682 1.83134 8.46311 2.49805 7.79336L2.50486 7.78655L3.04897 7.24166C3.36757 6.92079 3.54692 6.48791 3.54692 6.03535V5.25814Z" stroke="#FF0000" stroke-linecap="round" stroke-linejoin="round"/>
<path d="M7 11L11 7" stroke="#FF0000" stroke-linecap="round" stroke-linejoin="round"/>
<path d="M10.5 11C10.3667 11 10.24 10.9463 10.1467 10.8523C10.1 10.8054 10.0667 10.745 10.04 10.6846C10.0133 10.6242 10 10.5644 10 10.4966C10 10.4295 10.0133 10.3624 10.04 10.302C10.0667 10.2416 10.1 10.1879 10.1467 10.1409C10.3333 9.95302 10.6667 9.95302 10.8533 10.1409C10.9 10.1879 10.94 10.2416 10.9667 10.302C10.9867 10.3624 11 10.4295 11 10.4966C11 10.5644 10.9867 10.6242 10.9667 10.6846C10.94 10.745 10.9 10.8054 10.8533 10.8523C10.76 10.9463 10.6333 11 10.5 11Z" fill="#FF0000"/>
<path d="M6.5 7C6.43333 7 6.37333 6.98591 6.31333 6.95908C6.25333 6.93225 6.19333 6.89938 6.14667 6.85242C6.1 6.79876 6.06667 6.74509 6.04 6.68472C6.01333 6.62368 6 6.56398 6 6.4969C6 6.42915 6.01333 6.36274 6.04 6.30236C6.06667 6.24199 6.1 6.18162 6.14667 6.14137C6.34 5.95288 6.66667 5.95288 6.85333 6.14137C6.94667 6.23461 7 6.36274 7 6.4969C7 6.56398 6.99333 6.62368 6.96667 6.68472C6.94 6.74509 6.9 6.79876 6.85333 6.85242C6.80667 6.89938 6.75333 6.93225 6.69333 6.95908C6.63333 6.98591 6.56667 7 6.5 7Z" fill="#FF0000"/>
</svg>
