<svg width="162" height="46" viewBox="0 0 162 46" fill="none" xmlns="http://www.w3.org/2000/svg">
<path d="M161.852 0.0430876C161.376 1.19978 160.52 1.89163 159.76 2.65916C156.241 6.17247 153.039 9.97766 149.679 13.6315C142.314 21.6311 134.949 29.6198 127.637 37.6626C125.249 40.2895 122.892 42.9596 120.494 45.5757C120.314 45.7702 120.134 46.127 119.86 45.954C119.543 45.7594 119.733 45.3919 119.828 45.1108C120.483 43.2082 121.159 41.3056 121.804 39.403C122.079 38.5923 122.184 37.6842 122.448 36.9275C122.744 36.0627 123.188 35.1979 123.495 34.3006C125.323 28.8631 127.14 23.4039 128.958 17.9556C129.444 16.507 129.961 15.0693 130.416 13.6099C130.743 12.5613 130.585 12.3991 129.507 12.3991C126.02 12.3883 122.544 12.3775 119.057 12.3559C119.025 12.3559 118.993 12.3559 118.951 12.3559C118.592 12.3127 118.053 12.4316 118 11.9775C117.936 11.4478 118.528 11.5343 118.845 11.4478C124.657 9.88037 130.479 8.36694 136.28 6.78865C144.237 4.6158 152.173 2.39971 160.119 0.205241C160.647 0.0755182 161.175 -0.0758247 161.852 0.0430876Z" fill="#E2231F"/>
<path d="M31.1497 27.6819C30.8698 28.3967 30.8698 28.9835 30.8698 29.5702C30.8698 32.5254 30.8387 35.4805 30.8698 38.4464C30.8801 39.1185 30.7764 39.4279 30.0092 39.3958C28.2674 39.3318 26.5256 39.3532 24.7838 39.3852C24.2447 39.3959 24.0166 39.2998 24.0166 38.6811C24.0373 31.3519 24.027 24.0333 24.0166 16.7041C24.0166 16.1494 24.224 16.0107 24.732 16.0107C27.0129 16.0213 29.2938 16.0107 31.5748 16C31.9169 16 32.1035 16.064 32.3213 16.4587C34.343 20.118 36.6965 23.5746 38.6145 27.2979C38.7182 27.5006 38.8737 27.6819 39.05 27.9486C39.4025 27.4579 39.2885 26.9778 39.2885 26.5404C39.3092 23.3399 39.3299 20.1393 39.2988 16.9495C39.2885 16.224 39.4751 15.9893 40.1905 16.0107C41.7975 16.064 43.4045 16.0533 45.0219 16.0107C45.6958 15.9893 45.955 16.1494 45.9446 16.9175C45.9031 24.108 45.9031 31.2878 45.9135 38.4784C45.9135 39.1931 45.7476 39.3958 45.0322 39.3958C42.8239 39.3958 40.6155 39.4812 38.3968 39.5345C37.3704 39.5559 37.2771 38.5744 36.9349 37.9876C34.9651 34.6271 32.9744 31.3092 31.1497 27.6819Z" fill="white"/>
<path d="M0.0112216 27.697C0.0112216 25.3477 -0.0199495 22.9983 0.0216119 20.649C0.0631734 18.2782 1.46587 16.5297 3.93878 16.1971C5.00898 16.0576 6.0688 16.004 7.1494 16.004C9.90284 16.0147 12.6563 15.9826 15.4097 16.0147C16.3345 16.0255 17.2904 16.0791 18.1943 16.2937C20.3244 16.8086 21.6024 18.3533 21.7271 20.8314C21.9557 25.4549 22.0284 30.0892 21.7375 34.7235C21.5816 37.1586 20.4179 38.6819 18.5892 39.1325C17.9138 39.3041 17.2176 39.4007 16.5215 39.4221C12.2926 39.5723 8.06375 39.583 3.83487 39.3899C1.61134 39.2827 0.115125 37.4804 0.0631734 35.2706C0.000831227 32.7496 0.052783 30.2287 0.052783 27.7077C0.0320023 27.697 0.0216119 27.697 0.0112216 27.697ZM14.8175 27.6541C14.8175 26.0342 14.7863 24.4144 14.8279 22.7945C14.8383 22.183 14.6305 22.0329 14.0798 22.0329C11.8978 22.0543 9.7262 22.0543 7.54423 22.0329C7.09744 22.0329 6.97276 22.1938 6.97276 22.6336C6.96237 25.9484 6.94159 29.2525 6.91042 32.5673C6.90003 33.168 7.12862 33.3182 7.6793 33.3075C9.86128 33.2753 12.0329 33.2645 14.2148 33.286C14.724 33.286 14.8383 33.1036 14.8279 32.6209C14.7967 30.9689 14.8175 29.3061 14.8175 27.6541Z" fill="white"/>
<path d="M49.2964 26.7018C49.2964 23.4239 49.3175 20.146 49.2859 16.8681C49.2753 16.2039 49.4333 15.9897 50.1177 16.0004C56.1407 16.0218 62.1636 16.0218 68.1866 16.0004C68.7973 16.0004 68.9237 16.2039 68.9131 16.7717C68.871 18.2499 68.85 19.7389 68.9026 21.2279C68.9237 21.9242 68.7026 22.0956 68.0497 22.0956C64.4802 22.0634 60.9001 22.0956 57.3305 22.0634C56.7303 22.0527 56.604 22.2134 56.5934 22.7919C56.5513 25.2985 56.5303 25.2985 58.9521 25.2985C61.6372 25.2878 64.3327 25.2878 67.0178 25.2342C67.6707 25.2235 67.9234 25.3735 67.8812 26.0805C67.8181 27.216 67.8286 28.3622 67.8707 29.4976C67.8918 30.1297 67.6917 30.3118 67.0599 30.301C63.8589 30.2582 60.6579 30.301 57.4674 30.2475C56.7935 30.2368 56.604 30.4189 56.5934 31.0937C56.5724 33.3004 56.5408 33.2897 58.752 33.2683C61.7846 33.2469 64.8066 33.2683 67.8391 33.2147C68.6604 33.204 68.9553 33.429 68.9131 34.3181C68.8289 35.7964 68.871 37.2853 68.9131 38.7743C68.9342 39.3849 68.7131 39.5349 68.1445 39.5349C62.1531 39.5027 56.1617 39.5027 50.1704 39.4813C49.328 39.4813 48.9279 38.9671 49.1279 37.8424C49.4333 36.0963 49.2753 34.3502 49.3069 32.6041C49.328 30.6438 49.2964 28.6728 49.2964 26.7018Z" fill="white"/>
<path d="M71.0266 27.6253C71.0266 24.0911 71.0369 20.5569 71.0162 17.0228C71.0162 16.3734 71.1094 15.9795 71.8649 16.0008C77.1849 16.1392 82.5049 15.8944 87.8145 16.1286C90.2468 16.235 92.0477 17.5444 92.9585 19.6521C94.3248 22.803 94.3558 26.1775 92.824 29.2965C91.7372 31.5214 89.9052 32.8201 87.2453 32.7455C83.3018 32.6391 79.3481 32.7455 75.4047 32.6923C74.5249 32.6817 74.3179 32.9904 74.349 33.8101C74.4111 35.3536 74.38 36.8971 74.4214 38.4407C74.4421 39.1326 74.1937 39.42 73.5106 39.4626C71.0266 39.6542 71.0059 39.6436 71.0059 37.0887C71.0369 33.9378 71.0266 30.7762 71.0266 27.6253ZM81.4595 19.5137C79.4516 19.5031 77.4437 19.5456 75.4461 19.4818C74.5353 19.4498 74.2972 19.8224 74.3179 20.6847C74.3593 22.9095 74.3283 25.145 74.3386 27.3698C74.349 29.8394 74.2351 29.5307 76.45 29.4988C76.6156 29.4988 76.7812 29.5094 76.9468 29.5094C80.2589 29.5094 83.5709 29.5307 86.8726 29.5094C88.7771 29.4988 90.1744 28.3704 90.5159 26.614C90.785 25.1982 90.8368 23.7611 90.547 22.324C90.1537 20.3972 89.2014 19.5456 87.2867 19.5243C85.3305 19.5031 83.395 19.5137 81.4595 19.5137Z" fill="#E2231F"/>
<path d="M107.608 16.0919C109.427 16.0919 111.246 16.0069 113.055 16.1132C115.498 16.262 118.138 18.3871 118.783 20.6398C119.011 21.4261 119.385 22.3505 118.336 22.8924C117.535 23.3069 116.08 22.8181 115.581 21.9893C115.394 21.6705 115.196 21.3411 115.061 20.9904C114.676 19.9279 113.876 19.556 112.847 19.556C109.385 19.5453 105.924 19.5241 102.462 19.5772C100.685 19.6091 99.8009 20.4698 99.6762 22.2868C99.4163 25.8783 99.4787 29.4804 99.6138 33.0719C99.6762 34.7933 100.882 36.079 102.566 36.1215C106.028 36.2172 109.489 36.1853 112.951 36.1215C114.271 36.1003 114.895 35.0058 115.425 33.9645C116.236 32.4025 116.309 32.36 117.982 32.4557C118.835 32.5088 119.094 32.8913 119.011 33.6989C118.751 36.2597 116.319 39.0118 113.793 39.2349C109.676 39.5962 105.529 39.6599 101.402 39.2668C99.0837 39.0436 96.62 36.4935 96.3705 34.0283C95.9651 29.8948 95.9755 25.7402 96.3393 21.6174C96.5992 18.6528 99.6034 16.0813 102.566 16.0176C104.25 15.9857 105.924 16.0069 107.608 16.0069C107.608 16.0388 107.608 16.0601 107.608 16.0919Z" fill="#E2231F"/>
</svg>
