<svg width="18" height="18" viewBox="0 0 18 18" fill="none" xmlns="http://www.w3.org/2000/svg">
<path d="M4.75333 3.55556C4.8 4.24778 4.91667 4.92444 5.10333 5.57L4.17 6.50333C3.85111 5.57 3.64889 4.58222 3.57889 3.55556H4.75333ZM12.4222 12.9044C13.0833 13.0911 13.76 13.2078 14.4444 13.2544V14.4133C13.4178 14.3433 12.43 14.1411 11.4889 13.83L12.4222 12.9044ZM5.5 2H2.77778C2.35 2 2 2.35 2 2.77778C2 10.0811 7.91889 16 15.2222 16C15.65 16 16 15.65 16 15.2222V12.5078C16 12.08 15.65 11.73 15.2222 11.73C14.2578 11.73 13.3167 11.5744 12.4456 11.2867C12.3685 11.2579 12.2866 11.2447 12.2044 11.2478C12.0022 11.2478 11.8078 11.3256 11.6522 11.4733L9.94111 13.1844C7.73647 12.0569 5.94307 10.2635 4.81556 8.05889L6.52667 6.34778C6.74444 6.13 6.80667 5.82667 6.72111 5.55444C6.42658 4.65836 6.27692 3.72102 6.27778 2.77778C6.27778 2.35 5.92778 2 5.5 2Z" fill="#FF0000"/>
</svg>
