<svg width="18" height="18" viewBox="0 0 18 18" fill="none" xmlns="http://www.w3.org/2000/svg">
<path d="M2 9.5C2 13.6422 5.35775 17 9.5 17C13.6422 17 17 13.6422 17 9.5C17 5.35775 13.6422 2 9.5 2C5.35775 2 2 5.35775 2 9.5Z" stroke="#FF0000" stroke-linecap="round" stroke-linejoin="round"/>
<path d="M9.74706 2C9.74706 2 11.9883 4.97739 11.9883 9.5C11.9883 14.0226 9.74706 17 9.74706 17M8.25293 17C8.25293 17 6.01174 14.0226 6.01174 9.5C6.01174 4.97739 8.25293 2 8.25293 2M2 12.1382H16M2 6.86181H16" stroke="#FF0000" stroke-linecap="round" stroke-linejoin="round"/>
</svg>
