<svg width="24" height="24" viewBox="0 0 24 24" fill="none" xmlns="http://www.w3.org/2000/svg">
<path d="M8.33998 19.284L8.34698 19.2892C9.88832 20.4288 10.661 21 12 21C13.341 21 14.114 20.428 15.66 19.283C23.778 13.275 22.982 6.15304 19.463 3.99404M8.33998 19.284L8.935 18.4803C8.93482 18.4802 8.93465 18.4801 8.93447 18.4799M8.33998 19.284C0.221981 13.274 1.01798 6.15304 4.53698 3.99404M8.33998 19.284L8.93447 18.4799M8.93447 18.4799C10.5292 19.659 11.0411 20 12 20C12.9588 20 13.4711 19.6598 15.0648 18.4794L15.0651 18.4792C18.9631 15.5943 20.6027 12.5332 20.9342 10.0622C21.2684 7.57168 20.2975 5.67934 18.9401 4.84647L19.463 3.99404M8.93447 18.4799C5.0367 15.5941 3.39726 12.5329 3.06572 10.0619C2.73157 7.57147 3.7024 5.67935 5.05982 4.84647M19.463 3.99404L18.94 4.8464M19.463 3.99404C16.781 2.34904 14.44 3.01204 13.034 4.06804L13.0273 4.07308C12.4557 4.50272 12.1693 4.71804 12 4.71804C11.8306 4.71804 11.5442 4.50272 10.9727 4.07308L10.966 4.06804C9.55998 3.01204 7.21898 2.34904 4.53698 3.99404M18.94 4.8464L5.05982 4.84647M18.94 4.8464C16.6572 3.44626 14.7611 4.02147 13.6345 4.86763M18.94 4.8464L5.05993 4.8464M4.53698 3.99404L5.05993 4.8464M4.53698 3.99404L5.05982 4.84647M5.05982 4.84647L5.05993 4.8464M5.05993 4.8464C7.3428 3.44626 9.23883 4.02147 10.3654 4.86763M13.6345 4.86763L13.6349 4.86737L13.034 4.06809L13.6345 4.86763ZM13.6345 4.86763L13.604 4.89056C13.3406 5.08863 13.1045 5.26614 12.9131 5.39162C12.812 5.45795 12.6927 5.53043 12.5645 5.58842C12.4438 5.64305 12.2446 5.71804 12 5.71804C11.7554 5.71804 11.5561 5.64305 11.4354 5.58842C11.3073 5.53043 11.188 5.45795 11.0868 5.39162C10.8955 5.26614 10.6594 5.08863 10.3959 4.89056L10.3654 4.86763M10.3654 4.86763L10.9659 4.06809L10.3651 4.86737L10.3654 4.86763Z" stroke="#FF0000" stroke-width="2" stroke-linecap="round" stroke-linejoin="round"/>
</svg>
