<svg width="191" height="54" viewBox="0 0 191 54" fill="none" xmlns="http://www.w3.org/2000/svg">
<path d="M190.976 0.050581C190.418 1.40844 189.413 2.22061 188.52 3.12162C184.389 7.24594 180.631 11.7129 176.686 16.0022C168.04 25.393 159.394 34.7711 150.811 44.2126C148.007 47.2963 145.241 50.4308 142.425 53.5019C142.214 53.7303 142.003 54.1491 141.681 53.946C141.309 53.7176 141.532 53.2861 141.644 52.9562C142.413 50.7227 143.207 48.4892 143.963 46.2557C144.286 45.304 144.41 44.238 144.72 43.3497C145.067 42.3344 145.588 41.3192 145.948 40.2659C148.094 33.8828 150.228 27.4742 152.361 21.0783C152.932 19.3778 153.54 17.69 154.073 15.9768C154.457 14.7459 154.271 14.5555 153.006 14.5555C148.913 14.5428 144.832 14.5301 140.738 14.5048C140.701 14.5048 140.664 14.5048 140.614 14.5048C140.192 14.454 139.56 14.5936 139.498 14.0606C139.423 13.4388 140.118 13.5403 140.49 13.4388C147.313 11.5987 154.147 9.82206 160.957 7.96929C170.298 5.41855 179.614 2.81705 188.942 0.240935C189.562 0.0886517 190.182 -0.0890116 190.976 0.050581Z" fill="#E2231F"/>
<path d="M37.5435 32.5508C37.2149 33.3899 37.2149 34.0787 37.2149 34.7676C37.2149 38.2366 37.1784 41.7057 37.2149 45.1874C37.2271 45.9764 37.1054 46.3395 36.2047 46.302C34.16 46.2268 32.1153 46.2519 30.0706 46.2895C29.4377 46.302 29.1699 46.1893 29.1699 45.4629C29.1943 36.859 29.1821 28.2677 29.1699 19.6639C29.1699 19.0126 29.4133 18.8498 30.0097 18.8498C32.6873 18.8623 35.3649 18.8498 38.0426 18.8373C38.4442 18.8373 38.6633 18.9124 38.9189 19.3758C41.2922 23.6715 44.055 27.7292 46.3066 32.1C46.4283 32.3379 46.6109 32.5508 46.8178 32.8639C47.2316 32.2878 47.0977 31.7243 47.0977 31.2108C47.1221 27.4537 47.1464 23.6965 47.1099 19.9519C47.0977 19.1003 47.3168 18.8248 48.1566 18.8498C50.0431 18.9124 51.9296 18.8999 53.8283 18.8498C54.6194 18.8248 54.9237 19.0126 54.9115 19.9143C54.8628 28.3554 54.8628 36.7839 54.875 45.2249C54.875 46.064 54.6803 46.302 53.8405 46.302C51.248 46.302 48.6556 46.4022 46.051 46.4648C44.8461 46.4898 44.7366 45.3376 44.3349 44.6488C42.0225 40.7038 39.6856 36.8089 37.5435 32.5508Z" fill="#111111"/>
<path d="M0.989736 32.5685C0.989736 29.8106 0.953144 27.0527 1.00193 24.2948C1.05072 21.5117 2.69737 19.4591 5.60034 19.0687C6.85667 18.905 8.10081 18.842 9.36933 18.842C12.6016 18.8546 15.8339 18.8168 19.0662 18.8546C20.1518 18.8672 21.274 18.9301 22.3351 19.182C24.8356 19.7865 26.3359 21.5999 26.4822 24.5089C26.7506 29.9365 26.836 35.3768 26.4944 40.817C26.3115 43.6757 24.9454 45.4639 22.7986 45.9928C22.0058 46.1943 21.1886 46.3076 20.3714 46.3328C15.407 46.5091 10.4427 46.5217 5.47837 46.295C2.86813 46.1691 1.11171 44.0535 1.05072 41.4593C0.977538 38.4999 1.03853 35.5405 1.03853 32.5811C1.01413 32.5685 1.00193 32.5685 0.989736 32.5685ZM18.371 32.5181C18.371 30.6166 18.3344 28.715 18.3832 26.8134C18.3954 26.0956 18.1514 25.9193 17.505 25.9193C14.9435 25.9445 12.3943 25.9445 9.83283 25.9193C9.30835 25.9193 9.16198 26.1082 9.16198 26.6246C9.14978 30.5158 9.12539 34.3945 9.08879 38.2858C9.0766 38.991 9.34494 39.1673 9.9914 39.1547C12.5528 39.1169 15.1021 39.1044 17.6635 39.1295C18.2612 39.1295 18.3954 38.9155 18.3832 38.3488C18.3466 36.4094 18.371 34.4575 18.371 32.5181Z" fill="#111111"/>
<path d="M58.8472 31.4002C58.8472 27.5523 58.8719 23.7043 58.8349 19.8563C58.8225 19.0767 59.0079 18.8252 59.8114 18.8377C66.8818 18.8629 73.9522 18.8629 81.0227 18.8377C81.7396 18.8377 81.8879 19.0767 81.8756 19.7431C81.8261 21.4785 81.8014 23.2264 81.8632 24.9744C81.8879 25.7917 81.6284 25.9929 80.862 25.9929C76.6716 25.9552 72.4689 25.9929 68.2786 25.9552C67.574 25.9426 67.4257 26.1313 67.4133 26.8103C67.3639 29.7529 67.3392 29.7529 70.1822 29.7529C73.3342 29.7403 76.4986 29.7403 79.6506 29.6775C80.417 29.6649 80.7137 29.8409 80.6642 30.6709C80.5901 32.0038 80.6024 33.3494 80.6519 34.6823C80.6766 35.4243 80.4417 35.638 79.7001 35.6255C75.9424 35.5752 72.1846 35.6255 68.4393 35.5626C67.6482 35.55 67.4257 35.7638 67.4133 36.556C67.3886 39.1465 67.3515 39.1339 69.9473 39.1088C73.5073 39.0836 77.0548 39.1088 80.6148 39.0459C81.5789 39.0333 81.925 39.2974 81.8756 40.3411C81.7767 42.0765 81.8261 43.8244 81.8756 45.5724C81.9003 46.2891 81.6407 46.4652 80.9732 46.4652C73.9399 46.4275 66.9065 46.4275 59.8732 46.4023C58.8843 46.4023 58.4146 45.7987 58.6494 44.4783C59.0079 42.4286 58.8225 40.3788 58.8596 38.3291C58.8843 36.0279 58.8472 33.7141 58.8472 31.4002Z" fill="#111111"/>
<path d="M84.3554 32.4843C84.3554 28.3355 84.3675 24.1867 84.3432 20.0379C84.3432 19.2756 84.4525 18.8133 85.3395 18.8382C91.5847 19.0007 97.8299 18.7133 104.063 18.9882C106.918 19.1132 109.032 20.6502 110.102 23.1245C111.705 26.8235 111.742 30.7848 109.944 34.4463C108.668 37.058 106.517 38.5826 103.395 38.4951C98.7655 38.3701 94.1241 38.4951 89.4949 38.4326C88.4621 38.4201 88.2191 38.7825 88.2556 39.7447C88.3285 41.5567 88.292 43.3687 88.3406 45.1807C88.3649 45.9929 88.0733 46.3304 87.2714 46.3803C84.3554 46.6053 84.3311 46.5928 84.3311 43.5936C84.3675 39.8947 84.3554 36.1833 84.3554 32.4843ZM96.6027 22.9621C94.2456 22.9496 91.8885 22.9995 89.5435 22.9246C88.4743 22.8871 88.1948 23.3245 88.2191 24.3367C88.2677 26.9484 88.2313 29.5727 88.2434 32.1844C88.2556 35.0836 88.1219 34.7212 90.722 34.6837C90.9164 34.6837 91.1109 34.6962 91.3053 34.6962C95.1933 34.6962 99.0814 34.7212 102.957 34.6962C105.193 34.6837 106.833 33.3591 107.234 31.2972C107.55 29.6351 107.611 27.9481 107.271 26.2611C106.809 23.9993 105.691 22.9995 103.443 22.9746C101.147 22.9496 98.8748 22.9621 96.6027 22.9621Z" fill="#E2231F"/>
<path d="M127.299 18.9452C129.435 18.9452 131.571 18.8454 133.694 18.9702C136.562 19.1448 139.661 21.6395 140.418 24.284C140.686 25.207 141.126 26.2923 139.893 26.9284C138.953 27.4149 137.245 26.8411 136.659 25.8681C136.44 25.4939 136.208 25.1072 136.049 24.6956C135.598 23.4482 134.658 23.0117 133.45 23.0117C129.386 22.9992 125.323 22.9742 121.259 23.0366C119.172 23.074 118.135 24.0844 117.989 26.2174C117.683 30.4335 117.757 34.6621 117.915 38.8783C117.989 40.899 119.404 42.4083 121.381 42.4582C125.445 42.5705 129.508 42.5331 133.572 42.4582C135.122 42.4333 135.854 41.1485 136.476 39.9261C137.428 38.0924 137.513 38.0425 139.478 38.1548C140.479 38.2172 140.784 38.6662 140.686 39.6142C140.381 42.6204 137.526 45.8511 134.56 46.113C129.728 46.5371 124.859 46.612 120.014 46.1505C117.293 45.8885 114.401 42.8948 114.108 40.0009C113.632 35.1486 113.644 30.2714 114.071 25.4316C114.376 21.9514 117.903 18.9327 121.381 18.8579C123.358 18.8205 125.323 18.8454 127.299 18.8454C127.299 18.8828 127.299 18.9078 127.299 18.9452Z" fill="#E2231F"/>
</svg>
