<svg width="120" height="120" viewBox="0 0 120 120" fill="none" xmlns="http://www.w3.org/2000/svg">
<path d="M116.25 17.8125V80.625H3.75V17.8125C3.74982 17.1969 3.87094 16.5872 4.10644 16.0185C4.34194 15.4497 4.68721 14.9328 5.12252 14.4975C5.55784 14.0622 6.07466 13.7169 6.64345 13.4814C7.21225 13.2459 7.82188 13.1248 8.4375 13.125H111.562C112.178 13.1248 112.788 13.2459 113.357 13.4814C113.925 13.7169 114.442 14.0622 114.877 14.4975C115.313 14.9328 115.658 15.4497 115.894 16.0185C116.129 16.5872 116.25 17.1969 116.25 17.8125Z" fill="white"/>
<path d="M116.25 80.625V87.1875C116.25 87.8031 116.129 88.4128 115.894 88.9815C115.658 89.5503 115.313 90.0672 114.877 90.5025C114.442 90.9378 113.925 91.2831 113.357 91.5186C112.788 91.7541 112.178 91.8752 111.562 91.875H8.4375C7.82188 91.8752 7.21225 91.7541 6.64345 91.5186C6.07466 91.2831 5.55784 90.9378 5.12252 90.5025C4.68721 90.0672 4.34194 89.5503 4.10644 88.9815C3.87094 88.4128 3.74982 87.8031 3.75 87.1875V80.625H116.25Z" fill="white"/>
<path d="M73.125 101.25H46.875L48.75 91.875H71.25L73.125 101.25Z" fill="white"/>
<path d="M37.5 101.25H82.5V106.875H37.5V101.25Z" fill="white"/>
<path d="M111.562 11.25H8.4375C6.69761 11.2519 5.02953 11.9439 3.79924 13.1742C2.56895 14.4045 1.87692 16.0726 1.875 17.8125V87.1875C1.87692 88.9274 2.56895 90.5955 3.79924 91.8258C5.02953 93.0561 6.69761 93.7481 8.4375 93.75H46.4625L45.3375 99.375H37.5C37.0027 99.375 36.5258 99.5725 36.1742 99.9242C35.8225 100.276 35.625 100.753 35.625 101.25V106.875C35.625 107.372 35.8225 107.849 36.1742 108.201C36.5258 108.552 37.0027 108.75 37.5 108.75H82.5C82.9973 108.75 83.4742 108.552 83.8258 108.201C84.1775 107.849 84.375 107.372 84.375 106.875V101.25C84.375 100.753 84.1775 100.276 83.8258 99.9242C83.4742 99.5725 82.9973 99.375 82.5 99.375H74.6625L73.5375 93.75H111.562C113.302 93.7481 114.97 93.0561 116.201 91.8258C117.431 90.5955 118.123 88.9274 118.125 87.1875V17.8125C118.123 16.0726 117.431 14.4045 116.201 13.1742C114.97 11.9439 113.302 11.2519 111.562 11.25ZM80.625 103.125V105H39.375V103.125H80.625ZM49.1625 99.375L50.2875 93.75H69.7125L70.8375 99.375H49.1625ZM114.375 87.1875C114.374 87.9332 114.078 88.6482 113.551 89.1756C113.023 89.7029 112.308 89.9994 111.562 90H8.4375C7.69177 89.9994 6.97676 89.7029 6.44945 89.1756C5.92214 88.6482 5.62562 87.9332 5.625 87.1875V82.5H114.375V87.1875ZM114.375 78.75H5.625V17.8125C5.62562 17.0668 5.92214 16.3518 6.44945 15.8244C6.97676 15.2971 7.69177 15.0006 8.4375 15H111.562C112.308 15.0006 113.023 15.2971 113.551 15.8244C114.078 16.3518 114.374 17.0668 114.375 17.8125V78.75Z" fill="#071B3B"/>
<path d="M61.875 84.375H58.125C57.6277 84.375 57.1508 84.5725 56.7992 84.9242C56.4475 85.2758 56.25 85.7527 56.25 86.25C56.25 86.7473 56.4475 87.2242 56.7992 87.5758C57.1508 87.9275 57.6277 88.125 58.125 88.125H61.875C62.3723 88.125 62.8492 87.9275 63.2008 87.5758C63.5525 87.2242 63.75 86.7473 63.75 86.25C63.75 85.7527 63.5525 85.2758 63.2008 84.9242C62.8492 84.5725 62.3723 84.375 61.875 84.375Z" fill="#071B3B"/>
</svg>
