<?xml version="1.0" standalone="no"?>
<!DOCTYPE svg PUBLIC "-//W3C//DTD SVG 20010904//EN"
 "http://www.w3.org/TR/2001/REC-SVG-20010904/DTD/svg10.dtd">
<svg version="1.0" xmlns="http://www.w3.org/2000/svg"
 width="2000.000000pt" height="2000.000000pt" viewBox="0 0 2000.000000 2000.000000"
 preserveAspectRatio="xMidYMid meet">

<g transform="translate(0.000000,2000.000000) scale(0.100000,-0.100000)"
fill="#000000" stroke="none">
<path d="M561 13308 c-97 -259 -253 -803 -326 -1143 -151 -695 -220 -1306
-232 -2045 -21 -1339 211 -2584 717 -3850 618 -1547 1647 -2944 2955 -4015
1518 -1242 3371 -2010 5325 -2204 373 -38 550 -46 1000 -46 450 0 627 8 1000
46 2764 275 5291 1693 6969 3909 391 516 693 1003 982 1580 626 1253 967 2560
1040 3980 20 391 5 976 -37 1435 -65 721 -232 1514 -467 2215 l-52 155 -9433
3 -9432 2 -9 -22z"/>
</g>
</svg>
