<svg width="19" height="18" viewBox="0 0 19 18" fill="none" xmlns="http://www.w3.org/2000/svg">
<path d="M6.57143 15C6.9882 15 7.3879 14.842 7.6826 14.5607C7.9773 14.2794 8.14286 13.8978 8.14286 13.5C8.14286 13.1022 7.9773 12.7206 7.6826 12.4393C7.3879 12.158 6.9882 12 6.57143 12C6.15466 12 5.75496 12.158 5.46026 12.4393C5.16556 12.7206 5 13.1022 5 13.5C5 13.8978 5.16556 14.2794 5.46026 14.5607C5.75496 14.842 6.15466 15 6.57143 15ZM14.4286 15C14.8453 15 15.245 14.842 15.5397 14.5607C15.8344 14.2794 16 13.8978 16 13.5C16 13.1022 15.8344 12.7206 15.5397 12.4393C15.245 12.158 14.8453 12 14.4286 12C14.0118 12 13.6121 12.158 13.3174 12.4393C13.0227 12.7206 12.8571 13.1022 12.8571 13.5C12.8571 13.8978 13.0227 14.2794 13.3174 14.5607C13.6121 14.842 14.0118 15 14.4286 15Z" stroke="#FF0000" stroke-width="1.2" stroke-miterlimit="1.5" stroke-linecap="round" stroke-linejoin="round"/>
<path d="M8.11071 13H12V5.43636C12 5.32063 11.9503 5.20964 11.8619 5.12781C11.7735 5.04597 11.6536 5 11.5286 5H1M4.65357 13H3.04286C2.98095 13 2.91965 12.9887 2.86245 12.9668C2.80525 12.9449 2.75328 12.9127 2.70951 12.8722C2.66573 12.8317 2.63101 12.7836 2.60731 12.7306C2.58362 12.6777 2.57143 12.6209 2.57143 12.5636V9" stroke="#FF0000" stroke-width="1.2" stroke-linecap="round"/>
<path d="M2 7H5" stroke="#FF0000" stroke-width="1.2" stroke-linecap="round" stroke-linejoin="round"/>
<path d="M12 7H16.2075C16.2945 7.00002 16.3796 7.02525 16.4525 7.07264C16.5255 7.12002 16.5831 7.18753 16.6185 7.267L17.961 10.288C17.9866 10.3454 17.9999 10.4074 18 10.4702V12.55C18 12.6091 17.9884 12.6676 17.9657 12.7222C17.9431 12.7768 17.91 12.8264 17.8682 12.8682C17.8264 12.91 17.7768 12.9431 17.7222 12.9657C17.6676 12.9884 17.6091 13 17.55 13H16.125M12 13H12.75" stroke="#FF0000" stroke-width="1.2" stroke-linecap="round"/>
</svg>
