<?xml version="1.0" standalone="no"?>
<!DOCTYPE svg PUBLIC "-//W3C//DTD SVG 20010904//EN"
 "http://www.w3.org/TR/2001/REC-SVG-20010904/DTD/svg10.dtd">
<svg version="1.0" xmlns="http://www.w3.org/2000/svg"
 width="980.000000pt" height="980.000000pt" viewBox="0 0 980.000000 980.000000"
 preserveAspectRatio="xMidYMid meet">

<g transform="translate(0.000000,980.000000) scale(0.100000,-0.100000)"
fill="#000000" stroke="none">
<path d="M4570 9080 c-366 -34 -675 -98 -997 -205 -1049 -349 -1923 -1106
-2418 -2095 -91 -181 -149 -318 -204 -475 -23 -66 -46 -129 -51 -140 -13 -25
-40 -116 -40 -132 0 -10 815 -13 4044 -13 l4045 0 -19 63 c-56 186 -181 497
-276 688 -122 245 -303 528 -477 744 -703 874 -1689 1419 -2807 1551 -157 18
-656 27 -800 14z m-1770 -970 c0 -5 -19 -14 -42 -20 -302 -76 -519 -278 -614
-570 -25 -77 -28 -100 -28 -235 -1 -128 2 -162 22 -228 61 -212 196 -387 383
-498 71 -43 217 -99 257 -99 40 0 23 -19 -25 -26 -71 -10 -240 3 -317 25 -308
90 -540 337 -607 646 -20 94 -15 285 10 380 71 267 256 477 511 581 36 14 92
32 125 39 71 16 325 20 325 5z m1735 -45 l16 -55 59 0 c33 0 60 -4 60 -9 0 -6
-20 -24 -45 -42 -25 -18 -45 -33 -45 -34 0 -1 9 -27 19 -58 12 -33 16 -57 10
-57 -6 0 -31 14 -55 32 l-44 32 -45 -32 c-51 -36 -71 -41 -60 -14 4 9 13 36
20 59 13 43 13 43 -19 62 -18 11 -41 29 -51 41 -18 20 -18 20 47 20 l64 0 18
55 c9 30 21 55 26 55 5 0 16 -25 25 -55z m671 0 l18 -55 63 0 c35 0 63 -3 63
-7 0 -5 -22 -23 -49 -41 l-49 -34 19 -56 c10 -30 19 -57 19 -59 0 -10 -25 1
-65 29 l-45 32 -45 -33 c-26 -18 -49 -30 -52 -27 -5 5 7 59 23 100 3 7 -16 27
-41 45 -25 18 -45 36 -45 42 0 5 27 9 59 9 l60 0 17 55 c10 30 21 55 25 55 5
0 16 -25 25 -55z m674 -3 l15 -52 62 0 c35 0 63 -4 63 -8 0 -5 -20 -22 -45
-40 -50 -35 -52 -41 -30 -102 8 -24 13 -45 10 -48 -3 -3 -26 9 -50 26 -25 18
-48 32 -51 32 -3 0 -26 -14 -50 -31 -25 -17 -48 -28 -51 -26 -3 3 2 27 11 53
9 26 16 51 16 55 0 4 -20 22 -45 40 -25 18 -45 36 -45 41 0 4 27 8 59 8 l60 0
17 55 c10 31 23 54 28 52 6 -2 18 -27 26 -55z m-2016 -667 l17 -55 60 0 c32 0
59 -4 59 -9 0 -6 -20 -24 -45 -42 -25 -18 -45 -36 -45 -39 0 -4 7 -27 15 -50
25 -70 20 -75 -36 -35 l-50 38 -44 -32 c-38 -27 -65 -39 -65 -27 0 2 7 23 15
46 21 61 20 65 -30 101 -25 18 -45 36 -45 41 0 4 29 8 64 8 l63 0 13 48 c22
81 30 82 54 7z m670 0 l17 -55 60 0 c32 0 59 -4 59 -9 0 -7 -65 -64 -88 -76
-1 -1 7 -27 17 -58 24 -68 15 -72 -48 -26 l-42 32 -44 -32 c-24 -17 -48 -31
-54 -31 -6 0 -2 23 9 56 22 64 24 59 -48 105 -17 11 -30 25 -26 30 3 5 31 9
63 9 l57 0 18 55 c9 30 20 55 25 55 4 0 15 -25 25 -55z m672 0 l18 -55 57 0
c32 0 60 -4 63 -9 4 -5 -9 -19 -26 -30 -72 -46 -70 -41 -48 -105 11 -33 15
-56 9 -56 -6 0 -30 14 -54 31 l-44 31 -45 -33 c-25 -18 -49 -29 -53 -26 -5 6
7 58 23 101 2 6 -16 26 -41 44 -25 17 -45 36 -45 42 0 6 26 10 59 10 l60 0 17
55 c10 30 21 55 25 55 5 0 16 -25 25 -55z m674 -3 l15 -52 62 0 c35 0 63 -4
63 -8 0 -5 -20 -23 -45 -41 -50 -36 -51 -40 -30 -101 8 -23 15 -44 15 -46 0
-12 -27 0 -65 27 l-42 30 -47 -32 c-25 -18 -49 -30 -52 -26 -3 3 1 27 10 53 9
26 16 50 16 54 0 4 -20 21 -45 39 -25 18 -45 36 -45 41 0 5 28 10 62 12 l61 3
15 53 c8 29 20 51 26 49 6 -2 18 -27 26 -55z m-2689 -670 l16 -47 61 -3 c34
-2 62 -7 62 -13 0 -5 -20 -24 -45 -41 -25 -18 -45 -35 -45 -38 0 -4 7 -30 16
-59 8 -29 14 -55 11 -57 -2 -2 -21 9 -43 24 -21 15 -44 31 -50 35 -6 3 -32
-10 -59 -28 -27 -19 -50 -33 -53 -31 -2 3 3 26 12 52 9 26 16 53 16 59 0 6
-20 26 -45 44 -25 18 -45 36 -45 41 0 5 28 10 62 12 l61 3 14 40 c22 66 23 68
31 61 4 -4 14 -28 23 -54z m672 0 l14 -47 62 -3 c68 -3 78 -17 34 -45 -67 -41
-67 -40 -48 -96 9 -28 15 -56 13 -62 -2 -6 -25 6 -51 26 l-48 36 -50 -36 c-28
-20 -53 -34 -56 -31 -3 3 2 26 11 52 9 26 16 53 16 59 0 6 -20 26 -45 44 -25
18 -43 37 -40 42 4 5 32 9 64 9 l57 0 18 55 c9 31 21 53 26 50 6 -3 16 -27 23
-53z m671 3 l17 -55 60 0 c83 0 79 -15 -23 -81 -4 -3 -2 -25 7 -48 8 -24 15
-52 15 -63 0 -18 -6 -16 -51 16 l-50 37 -48 -35 c-27 -20 -51 -33 -54 -30 -3
3 3 30 13 60 l19 54 -49 37 c-27 20 -47 40 -44 45 3 4 32 8 64 8 l59 0 16 55
c8 30 19 55 23 55 5 0 16 -25 26 -55z m672 0 l18 -55 57 0 c32 0 60 -4 63 -8
3 -5 -17 -25 -44 -45 l-49 -37 19 -54 c10 -30 16 -57 13 -60 -3 -3 -27 10 -54
30 l-48 35 -50 -37 c-56 -40 -60 -36 -36 41 16 53 16 53 -47 92 -46 29 -35 43
31 43 l60 0 17 55 c10 30 21 55 25 55 5 0 16 -25 25 -55z m674 -7 l13 -48 58
0 c32 0 60 -4 64 -9 3 -5 -15 -24 -40 -42 -25 -18 -45 -38 -45 -44 0 -6 7 -33
16 -59 9 -26 14 -49 11 -52 -3 -3 -27 11 -54 30 l-50 36 -49 -35 c-27 -19 -50
-31 -52 -25 -2 5 4 33 13 61 19 56 19 55 -47 96 -45 28 -35 42 34 45 l61 3 14
40 c23 67 23 69 32 59 4 -5 14 -30 21 -56z"/>
<path d="M861 3763 c0 -10 8 -43 17 -73 l18 -55 4004 0 4005 0 21 65 c12 36
20 68 17 73 -2 4 -1822 7 -4044 7 -3840 0 -4039 -1 -4038 -17z"/>
</g>
</svg>
